<?xml version="1.0" encoding="UTF-8"?>
<svg version="1.1" xmlns="http://www.w3.org/2000/svg" width="500" height="500">
<path d="M0 0 C3.34770634 0.66697598 5.39415218 2.29032174 8.0390625 4.40625 C7.59412966 10.6353097 4.80496898 13.993043 0.29296875 17.9296875 C-4.20185875 21.42888654 -4.20185875 21.42888654 -6.92578125 21.34765625 C-9.80173758 20.01731945 -11.13975567 17.94289612 -12.9609375 15.40625 C-13.29714111 16.01919922 -13.63334473 16.63214844 -13.97973633 17.26367188 C-21.05217324 30.10474897 -28.35848312 42.52831199 -36.9609375 54.40625 C-34.35105327 59.17003869 -31.52028175 63.51512833 -28.1484375 67.78125 C-27.7148291 68.33925293 -27.2812207 68.89725586 -26.83447266 69.47216797 C-24.83031768 72.04745902 -22.80353795 74.60125829 -20.75390625 77.140625 C-20.12097656 77.92953125 -19.48804688 78.7184375 -18.8359375 79.53125 C-18.27648437 80.21445312 -17.71703125 80.89765625 -17.140625 81.6015625 C-15.9609375 83.40625 -15.9609375 83.40625 -15.9609375 86.40625 C-35.37649784 88.95159007 -35.37649784 88.95159007 -41.08154297 84.90039062 C-44.48635817 81.17361381 -46.87321345 76.89898351 -48.97558594 72.32910156 C-50.12491767 69.95270434 -50.12491767 69.95270434 -52.9609375 66.40625 C-53.2909375 73.00625 -53.6209375 79.60625 -53.9609375 86.40625 C-57.2403125 86.426875 -60.5196875 86.4475 -63.8984375 86.46875 C-64.93347412 86.477854 -65.96851074 86.48695801 -67.03491211 86.49633789 C-67.84452393 86.49883545 -68.65413574 86.50133301 -69.48828125 86.50390625 C-70.32093506 86.50914307 -71.15358887 86.51437988 -72.01147461 86.51977539 C-73.9609375 86.40625 -73.9609375 86.40625 -74.9609375 85.40625 C-75.06064862 83.1164288 -75.08893616 80.82348487 -75.09033203 78.53149414 C-75.09208435 77.81279648 -75.09383667 77.09409882 -75.09564209 76.35362244 C-75.10006096 73.96619283 -75.0971222 71.57883668 -75.09375 69.19140625 C-75.0944231 67.5385283 -75.09539318 65.88565044 -75.09664917 64.23277283 C-75.09812625 60.76332662 -75.09597154 57.29390611 -75.09130859 53.82446289 C-75.08561574 49.37092318 -75.08888743 44.91744378 -75.09488106 40.46390629 C-75.09849019 37.04877771 -75.09734638 33.63366348 -75.09475327 30.21853447 C-75.09408474 28.57623729 -75.09490983 26.93393882 -75.09723282 25.29164314 C-75.09976461 22.99786032 -75.09591108 20.70417586 -75.09033203 18.41040039 C-75.08953644 17.10325577 -75.08874084 15.79611115 -75.08792114 14.44935608 C-74.9609375 11.40625 -74.9609375 11.40625 -73.9609375 9.40625 C-67.3609375 9.40625 -60.7609375 9.40625 -53.9609375 9.40625 C-53.6309375 20.95625 -53.3009375 32.50625 -52.9609375 44.40625 C-46.38699342 33.82946985 -46.38699342 33.82946985 -40.6484375 22.90625 C-39.43546793 20.39733104 -38.2051192 17.90013084 -36.9609375 15.40625 C-36.5071875 14.44332031 -36.0534375 13.48039063 -35.5859375 12.48828125 C-33.9609375 10.40625 -33.9609375 10.40625 -31.26171875 9.69921875 C-30.27558594 9.66441406 -29.28945312 9.62960938 -28.2734375 9.59375 C-27.27957031 9.54605469 -26.28570312 9.49835938 -25.26171875 9.44921875 C-24.50246094 9.43503906 -23.74320313 9.42085937 -22.9609375 9.40625 C-23.30614198 7.44131426 -23.30614198 7.44131426 -23.9609375 5.40625 C-25.9447142 4.12188266 -25.9447142 4.12188266 -27.9609375 3.40625 C-27.9609375 2.74625 -27.9609375 2.08625 -27.9609375 1.40625 C-22.5609375 2.00625 -22.5609375 2.00625 -20.0859375 3.65625 C-18.58670859 5.98838386 -18.74069844 7.68996825 -18.9609375 10.40625 C-14.5059375 9.91125 -14.5059375 9.91125 -9.9609375 9.40625 C-10.0434375 8.66375 -10.1259375 7.92125 -10.2109375 7.15625 C-9.9609375 4.40625 -9.9609375 4.40625 -8.4609375 2.09375 C-5.58884782 0.15508947 -3.4492194 -0.1550211 0 0 Z " fill="#F9C756" transform="translate(208.9609375,207.59375)"/>
<path d="M0 0 C0.91434814 -0.00637985 1.82869629 -0.0127597 2.77075195 -0.01933289 C3.76034912 -0.02044571 4.74994629 -0.02155853 5.76953125 -0.02270508 C6.78297607 -0.02603348 7.7964209 -0.02936188 8.84057617 -0.03279114 C10.98583522 -0.03785948 13.13110216 -0.04019949 15.27636719 -0.04003906 C18.56849047 -0.04222733 21.86027973 -0.06038901 25.15234375 -0.0793457 C27.23307177 -0.08227921 29.31380138 -0.08426429 31.39453125 -0.08520508 C32.38412842 -0.09239059 33.37372559 -0.09957611 34.39331055 -0.10697937 C35.30765869 -0.10390274 36.22200684 -0.10082611 37.1640625 -0.09765625 C37.97077393 -0.09908127 38.77748535 -0.10050629 39.60864258 -0.10197449 C41.58203125 0.14526367 41.58203125 0.14526367 43.58203125 2.14526367 C43.8125 4.71166992 43.8125 4.71166992 43.76953125 7.70776367 C43.76308594 8.69905273 43.75664062 9.6903418 43.75 10.71166992 C43.58203125 13.14526367 43.58203125 13.14526367 42.58203125 14.14526367 C37.63203125 14.14526367 32.68203125 14.14526367 27.58203125 14.14526367 C27.58203125 36.25526367 27.58203125 58.36526367 27.58203125 81.14526367 C20.98203125 81.14526367 14.38203125 81.14526367 7.58203125 81.14526367 C6.58203125 80.14526367 6.58203125 80.14526367 6.46177673 77.51939392 C6.46399734 76.34913162 6.46621796 75.17886932 6.46850586 73.97314453 C6.46835983 73.32926285 6.46821381 72.68538116 6.46806335 72.02198792 C6.4687624 69.88466065 6.47655434 67.74741954 6.484375 65.61010742 C6.48623921 64.13180082 6.4876631 62.6534936 6.48866272 61.17518616 C6.49248766 57.27727565 6.50231773 53.37940218 6.5133667 49.48150635 C6.52358133 45.50680035 6.52816045 41.53208838 6.53320312 37.55737305 C6.54394003 29.75331772 6.56153663 21.9493006 6.58203125 14.14526367 C1.96203125 14.14526367 -2.65796875 14.14526367 -7.41796875 14.14526367 C-7.25570801 15.52319092 -7.09344727 16.90111816 -6.92626953 18.32080078 C-6.29520799 24.66335193 -6.27413863 30.96752851 -6.28515625 37.33666992 C-6.28372116 39.17635597 -6.28372116 39.17635597 -6.28225708 41.0532074 C-6.28158039 43.6256414 -6.28339882 46.19807715 -6.28759766 48.77050781 C-6.29299478 52.72684487 -6.28761421 56.68307054 -6.28125 60.6394043 C-6.28191006 63.14265976 -6.28318972 65.64591515 -6.28515625 68.14916992 C-6.28313202 69.33756973 -6.28110779 70.52596954 -6.27902222 71.75038147 C-6.28217438 72.83919113 -6.28532654 73.92800079 -6.28857422 75.04980469 C-6.28936981 76.01225601 -6.29016541 76.97470734 -6.29098511 77.96632385 C-6.41796875 80.14526367 -6.41796875 80.14526367 -7.41796875 81.14526367 C-13.68796875 81.14526367 -19.95796875 81.14526367 -26.41796875 81.14526367 C-26.41796875 61.01526367 -26.41796875 40.88526367 -26.41796875 20.14526367 C-23.77796875 19.48526367 -21.13796875 18.82526367 -18.41796875 18.14526367 C-13.61575601 15.27775535 -10.10804939 11.00810175 -7.41796875 6.14526367 C-7.04925787 4.48606472 -6.70515201 2.82049938 -6.41796875 1.14526367 C-4.0594188 -0.0340113 -2.6298016 0.01242609 0 0 Z " fill="#81CECA" transform="translate(225.41796875,212.854736328125)"/>
<path d="M0 0 C6.6 0 13.2 0 20 0 C20.33 10.89 20.66 21.78 21 33 C24.71569628 29.28430372 26.63944836 26.12531611 28.8125 21.5 C37.54813777 3.45186223 37.54813777 3.45186223 41 0 C42.4887186 -0.08669432 43.981445 -0.10703494 45.47265625 -0.09765625 C46.37177734 -0.09443359 47.27089844 -0.09121094 48.19726562 -0.08789062 C49.61555664 -0.07532227 49.61555664 -0.07532227 51.0625 -0.0625 C52.01189453 -0.05798828 52.96128906 -0.05347656 53.93945312 -0.04882812 C56.29303065 -0.0370011 58.64648477 -0.02052025 61 0 C62 3 62 3 60.89526367 5.58105469 C60.32525635 6.60102539 59.75524902 7.62099609 59.16796875 8.671875 C58.53834229 9.80520264 57.90871582 10.93853027 57.26000977 12.10620117 C56.56981255 13.32116422 55.87896451 14.53575775 55.1875 15.75 C54.49714559 16.97817658 53.80696022 18.2064482 53.11694336 19.43481445 C48.14422653 28.23236087 42.86203997 36.76555797 37 45 C40.42223891 50.3837661 44.0965966 55.52170041 48 60.5625 C48.43022461 61.11808594 48.86044922 61.67367187 49.30371094 62.24609375 C51.19186129 64.67926237 53.08468809 67.10878905 54.9765625 69.5390625 C55.52054687 70.24804688 56.06453125 70.95703125 56.625 71.6875 C57.09164062 72.28949219 57.55828125 72.89148438 58.0390625 73.51171875 C59 75 59 75 59 77 C55.77186442 77.22702385 52.54261311 77.42828723 49.3125 77.625 C48.40048828 77.68945312 47.48847656 77.75390625 46.54882812 77.8203125 C45.66259766 77.871875 44.77636719 77.9234375 43.86328125 77.9765625 C42.64572144 78.05511475 42.64572144 78.05511475 41.40356445 78.13525391 C38.49681641 77.97168474 36.57735416 77.35704296 34 76 C32.34667969 74.13647461 32.34667969 74.13647461 30.921875 71.90234375 C30.40109375 71.10119141 29.8803125 70.30003906 29.34375 69.47460938 C28.8178125 68.63736328 28.291875 67.80011719 27.75 66.9375 C26.68284188 65.27959363 25.61516154 63.62202324 24.546875 61.96484375 C24.08120117 61.2287085 23.61552734 60.49257324 23.13574219 59.73413086 C22.11516125 58.04712218 22.11516125 58.04712218 21 57 C21.00785522 57.85549438 21.00785522 57.85549438 21.01586914 58.72827148 C21.03658221 61.29800323 21.0496419 63.86771747 21.0625 66.4375 C21.07087891 67.33533203 21.07925781 68.23316406 21.08789062 69.15820312 C21.09272461 70.43920898 21.09272461 70.43920898 21.09765625 71.74609375 C21.10551147 72.93223267 21.10551147 72.93223267 21.11352539 74.14233398 C21 76 21 76 20 77 C13.4 77 6.8 77 0 77 C0 51.59 0 26.18 0 0 Z " fill="#8FD4D1" transform="translate(390,217)"/>
<path d="M0 0 C5.94 0 11.88 0 18 0 C22.43780817 9.38446277 26.11681797 18.97324037 29.75 28.6875 C30.36843299 30.33336499 30.9871693 31.97911603 31.60620117 33.62475586 C32.83434849 36.8913465 34.06037939 40.15871909 35.28466797 43.42675781 C36.80861295 47.49308544 38.34203427 51.55572817 39.87890625 55.6171875 C40.69021292 57.76558394 41.50141971 59.91401809 42.3125 62.0625 C42.67891602 63.02953857 43.04533203 63.99657715 43.42285156 64.99291992 C43.75381836 65.87310791 44.08478516 66.7532959 44.42578125 67.66015625 C44.70848877 68.40918213 44.99119629 69.15820801 45.2824707 69.92993164 C45.98206583 71.94826001 46.6024656 73.90013684 47 76 C46 77 46 77 44.05053711 77.11352539 C43.2178833 77.10828857 42.38522949 77.10305176 41.52734375 77.09765625 C40.62822266 77.09443359 39.72910156 77.09121094 38.80273438 77.08789062 C37.38444336 77.07532227 37.38444336 77.07532227 35.9375 77.0625 C34.98810547 77.05798828 34.03871094 77.05347656 33.06054688 77.04882812 C30.70696935 77.0370011 28.35351523 77.02052025 26 77 C25.16209211 75.21046815 24.32980604 73.41830305 23.5 71.625 C22.80390625 70.12839844 22.80390625 70.12839844 22.09375 68.6015625 C21 66 21 66 21 64 C13.08 64 5.16 64 -3 64 C-3.33 65.98 -3.66 67.96 -4 70 C-4.99 72.31 -5.98 74.62 -7 77 C-13.93 77 -20.86 77 -28 77 C-29 75 -29 75 -27.86352539 71.41845703 C-27.28290078 69.86190183 -26.69359373 68.30856959 -26.09765625 66.7578125 C-25.62832169 65.51062187 -25.62832169 65.51062187 -25.14950562 64.23823547 C-24.12817155 61.53085137 -23.09565969 58.82789107 -22.0625 56.125 C-21.362271 54.27759207 -20.6624822 52.43001722 -19.96313477 50.58227539 C-15.70277553 39.35055512 -11.37962526 28.14600973 -6.82763672 17.02880859 C-5.36518416 13.44385851 -3.93487452 9.84605328 -2.5 6.25 C-1.675 4.1875 -0.85 2.125 0 0 Z M8 31 C7.16486141 33.47857204 6.33180875 35.95781067 5.5 38.4375 C5.26152344 39.14455078 5.02304687 39.85160156 4.77734375 40.58007812 C3.5382166 43.7238026 3.5382166 43.7238026 3 47 C6.96 47 10.92 47 15 47 C14.35460128 44.89569999 13.70866624 42.79156446 13.0625 40.6875 C12.70285156 39.51574219 12.34320313 38.34398437 11.97265625 37.13671875 C11.33627721 35.08446023 10.67946621 33.03839863 10 31 C9.34 31 8.68 31 8 31 Z " fill="#8BD3CF" transform="translate(288,217)"/>
<path d="M0 0 C4.41675072 2.99708085 8.0624275 7.1247825 9.75 12.1875 C9.87781786 14.86144964 9.79391871 17.50845857 9.75 20.1875 C4.5261863 21.96581956 -0.72928367 23.29811286 -6.25 22.1875 C-8.4375 19.6875 -8.4375 19.6875 -10.25 17.1875 C-13.37693772 16.68654977 -13.37693772 16.68654977 -16.25 17.1875 C-17.52178716 18.28310101 -17.52178716 18.28310101 -17.875 20.875 C-17.13175953 24.81417448 -16.5077261 25.12863242 -13.3125 27.3125 C-10.17059011 29.21145653 -6.9969505 30.80487836 -3.625 32.25 C3.9600586 35.51395379 8.41010031 38.78478546 11.8671875 46.51171875 C14.24861066 53.72974913 13.06586863 60.1551783 10.01171875 66.9921875 C6.90956761 72.3897384 1.69683833 75.53875897 -4.25 77.1875 C-12.68219288 78.73574786 -20.3025587 78.40234584 -28 74.4375 C-32.04845847 71.63472106 -35.01676351 68.65397297 -37.25 64.1875 C-37.37005453 62.69100638 -37.42531451 61.18875207 -37.4375 59.6875 C-37.45167969 58.8934375 -37.46585937 58.099375 -37.48046875 57.28125 C-37.25 55.1875 -37.25 55.1875 -35.25 53.1875 C-32.73260804 52.88093236 -30.39668034 52.72570728 -27.875 52.6875 C-26.86566406 52.625625 -26.86566406 52.625625 -25.8359375 52.5625 C-23.8515625 52.53125 -23.8515625 52.53125 -20.25 53.1875 C-17.96875 56.19140625 -17.96875 56.19140625 -16.25 59.1875 C-13.03091798 59.63817148 -11.16055201 59.642776 -8.25 58.1875 C-7.57845316 55.90408257 -7.57845316 55.90408257 -8.25 53.1875 C-12.2321093 49.57156167 -17.59156028 47.51957597 -22.375 45.1875 C-29.03331187 41.88350142 -34.40144623 38.71312214 -37.55078125 31.68359375 C-39.6043579 24.35266928 -39.32438703 16.57393187 -36.1875 9.625 C-29.19025299 -2.41263681 -12.3841949 -5.55153564 0 0 Z " fill="#8ED3D0" transform="translate(371.25,217.8125)"/>
<path d="M0 0 C2.99452434 2.24589325 3.81623122 3.44869367 5 7 C5.37066773 12.00401435 5.09881835 14.98301324 2 19 C-1.55991776 21.37327851 -3.74341661 21.78356356 -8 22 C-11.34632935 20.64859776 -14.0005904 18.9996064 -17 17 C-17.495 17.495 -17.495 17.495 -18 18 C-20.01964199 18.07244053 -22.04167124 18.08377188 -24.0625 18.0625 C-25.71958984 18.04896484 -25.71958984 18.04896484 -27.41015625 18.03515625 C-28.26480469 18.02355469 -29.11945313 18.01195312 -30 18 C-29.99777939 18.82463242 -29.99555878 19.64926483 -29.99327087 20.49888611 C-29.97326948 28.25398257 -29.95802665 36.00906661 -29.94818783 43.76418209 C-29.94295964 47.751572 -29.93586316 51.73894067 -29.92456055 55.72631836 C-29.91372939 59.57125114 -29.90772268 63.41616345 -29.90512276 67.26111031 C-29.90326892 68.73118983 -29.89964909 70.20126818 -29.89426994 71.67133904 C-29.88705645 73.72354467 -29.88600919 75.77566467 -29.88647461 77.82788086 C-29.884254 78.99814316 -29.88203339 80.16840546 -29.87974548 81.37413025 C-30 84 -30 84 -31 85 C-37.6 85 -44.2 85 -51 85 C-51 62.89 -51 40.78 -51 18 C-56.28 18 -61.56 18 -67 18 C-66.67 13.38 -66.34 8.76 -66 4 C-64.50629883 4.02094727 -63.01259766 4.04189453 -61.47363281 4.06347656 C-55.93499325 4.13584387 -50.39639552 4.18178839 -44.85742188 4.21972656 C-42.45956394 4.23984936 -40.06175512 4.26715059 -37.6640625 4.30175781 C-34.21862677 4.3502449 -30.77383948 4.37296241 -27.328125 4.390625 C-26.25508118 4.41127014 -25.18203735 4.43191528 -24.07647705 4.45318604 C-23.07574158 4.45348816 -22.0750061 4.45379028 -21.04394531 4.45410156 C-20.16458313 4.46298401 -19.28522095 4.47186646 -18.37921143 4.48101807 C-15.2405862 3.8464652 -14.13253882 2.31690697 -12 0 C-7.83523216 -1.38825595 -4.24785872 -1.00627395 0 0 Z " fill="#F3C556" transform="translate(120,209)"/>
<path d="M0 0 C0.33 0.99 0.66 1.98 1 3 C0.34 3 -0.32 3 -1 3 C-0.92935333 3.63988861 -0.85870667 4.27977722 -0.78591919 4.9390564 C-0.02673308 12.40565221 0.145846 19.78779617 0.1328125 27.2890625 C0.13424759 29.12662613 0.13424759 29.12662613 0.13571167 31.00131226 C0.13638776 33.5677699 0.13457363 36.1342293 0.13037109 38.70068359 C0.12496832 42.64815021 0.13035898 46.59550542 0.13671875 50.54296875 C0.13605877 53.04166692 0.13477928 55.54036502 0.1328125 58.0390625 C0.13483673 59.22432526 0.13686096 60.40958801 0.13894653 61.63076782 C0.13579437 62.71634979 0.13264221 63.80193176 0.12939453 64.92041016 C0.12859894 65.87984528 0.12780334 66.8392804 0.12698364 67.82778931 C0 70 0 70 -1 71 C-7.27 71 -13.54 71 -20 71 C-20 50.87 -20 30.74 -20 10 C-17.36 9.34 -14.72 8.68 -12 8 C-9.08173013 6.13263879 -9.08173013 6.13263879 -6.625 3.875 C-2.17081851 0 -2.17081851 0 0 0 Z " fill="#F8C758" transform="translate(219,223)"/>
<path d="M0 0 C1.27423828 -0.00193359 1.27423828 -0.00193359 2.57421875 -0.00390625 C3.91419922 0.00189453 3.91419922 0.00189453 5.28125 0.0078125 C6.17457031 0.00394531 7.06789063 0.00007812 7.98828125 -0.00390625 C8.83777344 -0.00261719 9.68726562 -0.00132812 10.5625 0 C11.34689453 0.00112793 12.13128906 0.00225586 12.93945312 0.00341797 C14.78125 0.1328125 14.78125 0.1328125 15.78125 1.1328125 C15.87506302 2.97399279 15.89868954 4.81878891 15.89477539 6.66235352 C15.89469986 7.84350235 15.89462433 9.02465118 15.89454651 10.24159241 C15.88938522 11.5269841 15.88422394 12.81237579 15.87890625 14.13671875 C15.8774913 15.44487045 15.87607635 16.75302216 15.87461853 18.10081482 C15.8707941 21.58444109 15.86096446 25.06802589 15.84991455 28.55163574 C15.83969882 32.10407958 15.83512056 35.65653009 15.83007812 39.20898438 C15.81934212 46.18361082 15.8022666 53.15820967 15.78125 60.1328125 C12.46876813 60.16169396 9.15631833 60.17957049 5.84375 60.1953125 C4.89822266 60.20369141 3.95269531 60.21207031 2.97851562 60.22070312 C1.62983398 60.22553711 1.62983398 60.22553711 0.25390625 60.23046875 C-0.99507446 60.23832397 -0.99507446 60.23832397 -2.26928711 60.24633789 C-4.21875 60.1328125 -4.21875 60.1328125 -5.21875 59.1328125 C-5.31774561 57.32771877 -5.34674151 55.51874322 -5.34814453 53.7109375 C-5.35129669 52.55303711 -5.35444885 51.39513672 -5.35769653 50.20214844 C-5.3556723 48.94176758 -5.35364807 47.68138672 -5.3515625 46.3828125 C-5.35299759 44.45743652 -5.35299759 44.45743652 -5.35446167 42.49316406 C-5.35593831 39.77277426 -5.35378519 37.05241725 -5.34912109 34.33203125 C-5.34342381 30.83796581 -5.34670299 27.34397717 -5.35269356 23.84991455 C-5.35716754 20.52754097 -5.35403885 17.20518827 -5.3515625 13.8828125 C-5.35358673 12.62243164 -5.35561096 11.36205078 -5.35769653 10.06347656 C-5.35454437 8.90557617 -5.35139221 7.74767578 -5.34814453 6.5546875 C-5.34695114 5.01699707 -5.34695114 5.01699707 -5.34573364 3.44824219 C-5.12804399 -0.52112797 -3.54146344 0.00509249 0 0 Z " fill="#FCC754" transform="translate(108.21875,233.8671875)"/>
<path d="M0 0 C2.99452434 2.24589325 3.81623122 3.44869367 5 7 C5.37066773 12.00401435 5.09881835 14.98301324 2 19 C-1.55991776 21.37327851 -3.74341661 21.78356356 -8 22 C-11.34632935 20.64859776 -14.0005904 18.9996064 -17 17 C-17.495 17.495 -17.495 17.495 -18 18 C-20.01964199 18.07244053 -22.04167124 18.08377188 -24.0625 18.0625 C-25.71958984 18.04896484 -25.71958984 18.04896484 -27.41015625 18.03515625 C-28.26480469 18.02355469 -29.11945313 18.01195312 -30 18 C-29.01 17.34 -28.02 16.68 -27 16 C-27 12.7 -27 9.4 -27 6 C-40.365 6.495 -40.365 6.495 -54 7 C-54.66 8.32 -55.32 9.64 -56 11 C-57.32 11 -58.64 11 -60 11 C-59.67 12.32 -59.34 13.64 -59 15 C-56.36 15.33 -53.72 15.66 -51 16 C-51 16.66 -51 17.32 -51 18 C-56.28 18 -61.56 18 -67 18 C-66.67 13.38 -66.34 8.76 -66 4 C-64.50629883 4.02094727 -63.01259766 4.04189453 -61.47363281 4.06347656 C-55.93499325 4.13584387 -50.39639552 4.18178839 -44.85742188 4.21972656 C-42.45956394 4.23984936 -40.06175512 4.26715059 -37.6640625 4.30175781 C-34.21862677 4.3502449 -30.77383948 4.37296241 -27.328125 4.390625 C-26.25508118 4.41127014 -25.18203735 4.43191528 -24.07647705 4.45318604 C-23.07574158 4.45348816 -22.0750061 4.45379028 -21.04394531 4.45410156 C-20.16458313 4.46298401 -19.28522095 4.47186646 -18.37921143 4.48101807 C-15.2405862 3.8464652 -14.13253882 2.31690697 -12 0 C-7.83523216 -1.38825595 -4.24785872 -1.00627395 0 0 Z " fill="#F6C757" transform="translate(120,209)"/>
<path d="M0 0 C3.34770634 0.66697598 5.39415218 2.29032174 8.0390625 4.40625 C7.59412966 10.6353097 4.80496898 13.993043 0.29296875 17.9296875 C-4.20185875 21.42888654 -4.20185875 21.42888654 -6.92578125 21.34765625 C-8.9609375 20.40625 -8.9609375 20.40625 -12.9609375 15.40625 C-16.5909375 21.67625 -20.2209375 27.94625 -23.9609375 34.40625 C-24.9609375 32.40625 -24.9609375 32.40625 -24.40234375 30.2421875 C-23.96728516 29.02402344 -23.96728516 29.02402344 -23.5234375 27.78125 C-23.09224609 26.55535156 -23.09224609 26.55535156 -22.65234375 25.3046875 C-22.42417969 24.67820313 -22.19601563 24.05171875 -21.9609375 23.40625 C-21.3009375 23.40625 -20.6409375 23.40625 -19.9609375 23.40625 C-19.9609375 22.08625 -19.9609375 20.76625 -19.9609375 19.40625 C-18.9709375 19.40625 -17.9809375 19.40625 -16.9609375 19.40625 C-16.6309375 16.76625 -16.3009375 14.12625 -15.9609375 11.40625 C-16.6003125 11.550625 -17.2396875 11.695 -17.8984375 11.84375 C-20.46291804 12.31477704 -23.0001743 12.70644777 -25.5859375 13.03125 C-26.71902344 13.17433594 -26.71902344 13.17433594 -27.875 13.3203125 C-29.9609375 13.40625 -29.9609375 13.40625 -32.9609375 12.40625 C-33.6209375 15.37625 -34.2809375 18.34625 -34.9609375 21.40625 C-35.9509375 21.40625 -36.9409375 21.40625 -37.9609375 21.40625 C-38.1775 22.5509375 -38.1775 22.5509375 -38.3984375 23.71875 C-38.9609375 26.40625 -38.9609375 26.40625 -39.9609375 29.40625 C-40.6209375 29.40625 -41.2809375 29.40625 -41.9609375 29.40625 C-42.6209375 31.38625 -43.2809375 33.36625 -43.9609375 35.40625 C-44.6209375 35.40625 -45.2809375 35.40625 -45.9609375 35.40625 C-44.44704883 30.38360894 -42.32997837 25.87528867 -39.9609375 21.21875 C-39.60515625 20.50783203 -39.249375 19.79691406 -38.8828125 19.06445312 C-37.35887359 16.04216383 -35.84384381 13.23060946 -33.9609375 10.40625 C-31.359375 9.89453125 -31.359375 9.89453125 -28.3359375 9.71875 C-26.83160156 9.62013672 -26.83160156 9.62013672 -25.296875 9.51953125 C-24.14058594 9.46345703 -24.14058594 9.46345703 -22.9609375 9.40625 C-23.30614198 7.44131426 -23.30614198 7.44131426 -23.9609375 5.40625 C-25.9447142 4.12188266 -25.9447142 4.12188266 -27.9609375 3.40625 C-27.9609375 2.74625 -27.9609375 2.08625 -27.9609375 1.40625 C-22.5609375 2.00625 -22.5609375 2.00625 -20.0859375 3.65625 C-18.58670859 5.98838386 -18.74069844 7.68996825 -18.9609375 10.40625 C-14.5059375 9.91125 -14.5059375 9.91125 -9.9609375 9.40625 C-10.0434375 8.66375 -10.1259375 7.92125 -10.2109375 7.15625 C-9.9609375 4.40625 -9.9609375 4.40625 -8.4609375 2.09375 C-5.58884782 0.15508947 -3.4492194 -0.1550211 0 0 Z " fill="#B7CE8C" transform="translate(208.9609375,207.59375)"/>
<path d="M0 0 C6.63858772 -0.02469006 13.27714881 -0.04285527 19.91577148 -0.05493164 C22.1748908 -0.05996526 24.43400686 -0.06679262 26.69311523 -0.07543945 C29.93734543 -0.08754745 33.18153261 -0.09323799 36.42578125 -0.09765625 C37.94465691 -0.10539818 37.94465691 -0.10539818 39.49421692 -0.11329651 C40.43496567 -0.11337204 41.37571442 -0.11344757 42.3449707 -0.11352539 C43.17325882 -0.115746 44.00154694 -0.11796661 44.85493469 -0.12025452 C47 0 47 0 50 1 C50.05416188 2.60379341 50.09286638 4.20811406 50.125 5.8125 C50.14820313 6.70582031 50.17140625 7.59914062 50.1953125 8.51953125 C50 11 50 11 48 14 C45.1796875 14.29296875 45.1796875 14.29296875 41.875 14.1875 C40.23144531 14.14689453 40.23144531 14.14689453 38.5546875 14.10546875 C37.71164063 14.07066406 36.86859375 14.03585938 36 14 C36.99 13.34 37.98 12.68 39 12 C39 8.7 39 5.4 39 2 C25.635 2.495 25.635 2.495 12 3 C11.34 4.32 10.68 5.64 10 7 C8.68 7 7.36 7 6 7 C6.33 8.32 6.66 9.64 7 11 C9.64 11.33 12.28 11.66 15 12 C15 12.66 15 13.32 15 14 C9.72 14 4.44 14 -1 14 C-0.67 9.38 -0.34 4.76 0 0 Z " fill="#CDBD61" transform="translate(54,213)"/>
<path d="M0 0 C6.6 0 13.2 0 20 0 C20.495 18.315 20.495 18.315 21 37 C20.01 37.495 20.01 37.495 19 38 C19 25.79 19 13.58 19 1 C13.06 1 7.12 1 1 1 C1.33 25.42 1.66 49.84 2 75 C7.28 75.33 12.56 75.66 18 76 C18 69.07 18 62.14 18 55 C18.99 54.505 18.99 54.505 20 54 C20 61.59 20 69.18 20 77 C16.720625 77.020625 13.44125 77.04125 10.0625 77.0625 C9.02746338 77.071604 7.99242676 77.08070801 6.92602539 77.09008789 C6.11641357 77.09258545 5.30680176 77.09508301 4.47265625 77.09765625 C3.64000244 77.10289307 2.80734863 77.10812988 1.94946289 77.11352539 C0 77 0 77 -1 76 C-1.09971112 73.7101788 -1.12799866 71.41723487 -1.12939453 69.12524414 C-1.13114685 68.40654648 -1.13289917 67.68784882 -1.13470459 66.94737244 C-1.13912346 64.55994283 -1.1361847 62.17258668 -1.1328125 59.78515625 C-1.1334856 58.1322783 -1.13445568 56.47940044 -1.13571167 54.82652283 C-1.13718875 51.35707662 -1.13503404 47.88765611 -1.13037109 44.41821289 C-1.12467824 39.96467318 -1.12794993 35.51119378 -1.13394356 31.05765629 C-1.13755269 27.64252771 -1.13640888 24.22741348 -1.13381577 20.81228447 C-1.13314724 19.16998729 -1.13397233 17.52768882 -1.13629532 15.88539314 C-1.13882711 13.59161032 -1.13497358 11.29792586 -1.12939453 9.00415039 C-1.12859894 7.69700577 -1.12780334 6.38986115 -1.12698364 5.04310608 C-1 2 -1 2 0 0 Z " fill="#95AC68" transform="translate(135,217)"/>
<path d="M0 0 C0.99 0 1.98 0 3 0 C2.67 0.99 2.34 1.98 2 3 C1.88390641 4.82465899 1.82343471 6.65307886 1.79467773 8.48120117 C1.77473251 9.60213669 1.75478729 10.7230722 1.73423767 11.87797546 C1.71752518 13.08742325 1.70081268 14.29687103 1.68359375 15.54296875 C1.66281265 16.78170242 1.64203156 18.0204361 1.62062073 19.29670715 C1.56628203 22.58625256 1.51604049 25.87582726 1.46777344 29.16546631 C1.41749354 32.52377814 1.36184139 35.88200046 1.30664062 39.24023438 C1.19946949 45.8267538 1.09819524 52.41334089 1 59 C6.61 59 12.22 59 18 59 C18 39.86 18 20.72 18 1 C16.68 0.67 15.36 0.34 14 0 C15.66611905 -0.042721 17.33382885 -0.04063832 19 0 C20 1 20 1 20.12025452 3.36012268 C20.1169236 4.92898476 20.1169236 4.92898476 20.11352539 6.52954102 C20.11344986 7.71068985 20.11337433 8.89183868 20.11329651 10.10877991 C20.10813522 11.3941716 20.10297394 12.67956329 20.09765625 14.00390625 C20.0962413 15.31205795 20.09482635 16.62020966 20.09336853 17.96800232 C20.0895441 21.45162859 20.07971446 24.93521339 20.06866455 28.41882324 C20.05844882 31.97126708 20.05387056 35.52371759 20.04882812 39.07617188 C20.03809212 46.05079832 20.0210166 53.02539717 20 60 C16.68751813 60.02888146 13.37506833 60.04675799 10.0625 60.0625 C9.11697266 60.07087891 8.17144531 60.07925781 7.19726562 60.08789062 C5.84858398 60.09272461 5.84858398 60.09272461 4.47265625 60.09765625 C3.22367554 60.10551147 3.22367554 60.10551147 1.94946289 60.11352539 C0 60 0 60 -1 59 C-1.09899561 57.19490627 -1.12799151 55.38593072 -1.12939453 53.578125 C-1.13254669 52.42022461 -1.13569885 51.26232422 -1.13894653 50.06933594 C-1.1369223 48.80895508 -1.13489807 47.54857422 -1.1328125 46.25 C-1.13424759 44.32462402 -1.13424759 44.32462402 -1.13571167 42.36035156 C-1.13718831 39.63996176 -1.13503519 36.91960475 -1.13037109 34.19921875 C-1.12467381 30.70515331 -1.12795299 27.21116467 -1.13394356 23.71710205 C-1.13841754 20.39472847 -1.13528885 17.07237577 -1.1328125 13.75 C-1.13483673 12.48961914 -1.13686096 11.22923828 -1.13894653 9.93066406 C-1.13579437 8.77276367 -1.13264221 7.61486328 -1.12939453 6.421875 C-1.12820114 4.88418457 -1.12820114 4.88418457 -1.12698364 3.31542969 C-1 1 -1 1 0 0 Z " fill="#A5B16D" transform="translate(104,234)"/>
<path d="M0 0 C0.33 0.99 0.66 1.98 1 3 C0.34 3 -0.32 3 -1 3 C-0.92894547 3.63948074 -0.85789093 4.27896149 -0.78468323 4.93782043 C-0.02111392 12.41897618 0.13086324 19.80845681 0.09765625 27.32421875 C0.0962413 28.55163284 0.09482635 29.77904694 0.09336853 31.0436554 C0.08781636 34.92496279 0.07527295 38.80621034 0.0625 42.6875 C0.05747881 45.33528562 0.05291699 47.98307215 0.04882812 50.63085938 C0.03786264 57.08725966 0.02117285 63.54362555 0 70 C-0.33 70 -0.66 70 -1 70 C-1.33 51.52 -1.66 33.04 -2 14 C-6.29 14 -10.58 14 -15 14 C-15.99 13.67 -16.98 13.34 -18 13 C-18.33 32.14 -18.66 51.28 -19 71 C-19.33 71 -19.66 71 -20 71 C-20 50.87 -20 30.74 -20 10 C-17.36 9.34 -14.72 8.68 -12 8 C-9.08173013 6.13263879 -9.08173013 6.13263879 -6.625 3.875 C-2.17081851 0 -2.17081851 0 0 0 Z " fill="#B5B46A" transform="translate(219,223)"/>
<path d="M0 0 C5.4 0.6 5.4 0.6 7.875 2.25 C9 4 9 4 9 9 C12.3 9 15.6 9 19 9 C18.01 9.33 17.02 9.66 16 10 C15.31102997 11.99242685 14.65049472 13.9946818 14 16 C12.41386669 19.03168721 10.64591211 21.9482825 8.875 24.875 C8.40707031 25.65875 7.93914062 26.4425 7.45703125 27.25 C6.30981892 29.16982472 5.1573993 31.08630561 4 33 C3 31 3 31 3.55859375 28.8359375 C3.99365234 27.61777344 3.99365234 27.61777344 4.4375 26.375 C4.86869141 25.14910156 4.86869141 25.14910156 5.30859375 23.8984375 C5.53675781 23.27195313 5.76492187 22.64546875 6 22 C6.66 22 7.32 22 8 22 C8 20.68 8 19.36 8 18 C8.99 18 9.98 18 11 18 C11.33 15.36 11.66 12.72 12 10 C11.360625 10.144375 10.72125 10.28875 10.0625 10.4375 C7.49801946 10.90852704 4.9607632 11.30019777 2.375 11.625 C1.24191406 11.76808594 1.24191406 11.76808594 0.0859375 11.9140625 C-2 12 -2 12 -5 11 C-5.66 13.97 -6.32 16.94 -7 20 C-7.99 20 -8.98 20 -10 20 C-10.2165625 21.1446875 -10.2165625 21.1446875 -10.4375 22.3125 C-11 25 -11 25 -12 28 C-12.66 28 -13.32 28 -14 28 C-14.66 29.98 -15.32 31.96 -16 34 C-16.66 34 -17.32 34 -18 34 C-16.48611133 28.97735894 -14.36904087 24.46903867 -12 19.8125 C-11.64421875 19.10158203 -11.2884375 18.39066406 -10.921875 17.65820312 C-9.39793609 14.63591383 -7.88290631 11.82435946 -6 9 C-3.3984375 8.48828125 -3.3984375 8.48828125 -0.375 8.3125 C1.12933594 8.21388672 1.12933594 8.21388672 2.6640625 8.11328125 C3.82035156 8.05720703 3.82035156 8.05720703 5 8 C4.65479552 6.03506426 4.65479552 6.03506426 4 4 C2.0162233 2.71563266 2.0162233 2.71563266 0 2 C0 1.34 0 0.68 0 0 Z " fill="#B1B865" transform="translate(181,209)"/>
<path d="M0 0 C1.98 0.66 3.96 1.32 6 2 C6.33 1.34 6.66 0.68 7 0 C13 13.10679612 13 13.10679612 13 17 C13.66 17 14.32 17 15 17 C15 17.99 15 18.98 15 20 C20.94 19.67 26.88 19.34 33 19 C32.34 17.02 31.68 15.04 31 13 C30.34 13 29.68 13 29 13 C29.33 11.68 29.66 10.36 30 9 C31.17544805 10.43032837 32.34010262 11.86953242 33.5 13.3125 C34.47453125 14.51326172 34.47453125 14.51326172 35.46875 15.73828125 C37 18 37 18 37 21 C17.61711226 23.54105676 17.61711226 23.54105676 11.87939453 19.51025391 C8.43619018 15.7789153 6.07073748 11.48165011 3.90820312 6.91259766 C2.76568894 4.50656107 1.40786217 2.25881683 0 0 Z " fill="#C4C06D" transform="translate(156,273)"/>
<path d="M0 0 C2.29890775 1.12520379 3.98200335 2.38560268 6 4 C5.67 5.32 5.34 6.64 5 8 C5 7.34 5 6.68 5 6 C1.1044552 6 0.2219549 6.33705553 -3 8 C-3.99 8 -4.98 8 -6 8 C-6 8.66 -6 9.32 -6 10 C-7.65 10.33 -9.3 10.66 -11 11 C-12.44230769 4.75 -12.44230769 4.75 -10.5625 1.5625 C-7.0524886 -0.57775085 -3.95029616 -0.78703218 0 0 Z " fill="#6DC7BF" transform="translate(211,208)"/>
<path d="M0 0 C0.33 0.99 0.66 1.98 1 3 C0.34 3 -0.32 3 -1 3 C-0.92894547 3.63948074 -0.85789093 4.27896149 -0.78468323 4.93782043 C-0.02111392 12.41897618 0.13086324 19.80845681 0.09765625 27.32421875 C0.0962413 28.55163284 0.09482635 29.77904694 0.09336853 31.0436554 C0.08781636 34.92496279 0.07527295 38.80621034 0.0625 42.6875 C0.05747881 45.33528562 0.05291699 47.98307215 0.04882812 50.63085938 C0.03786264 57.08725966 0.02117285 63.54362555 0 70 C-0.33 70 -0.66 70 -1 70 C-1.495 38.32 -1.495 38.32 -2 6 C-4.31 6.33 -6.62 6.66 -9 7 C-3.34042553 0 -3.34042553 0 0 0 Z " fill="#A6B470" transform="translate(219,223)"/>
<path d="M0 0 C1.1875 1.6875 1.1875 1.6875 2 4 C0.515 6.475 0.515 6.475 -1 9 C2.63 13.95 6.26 18.9 10 24 C9.67 24.66 9.34 25.32 9 26 C8.566875 25.525625 8.13375 25.05125 7.6875 24.5625 C5.97690387 22.76313043 5.97690387 22.76313043 3 22 C2.67 22.99 2.34 23.98 2 25 C0.35 25.33 -1.3 25.66 -3 26 C-2.505 25.525625 -2.01 25.05125 -1.5 24.5625 C0.70453669 20.79641649 0.24608113 17.26540621 0 13 C-1.32 13.33 -2.64 13.66 -4 14 C-5.1092904 10.67212881 -5.01557588 9.3006216 -4 6 C-3.01 5.34 -2.02 4.68 -1 4 C-0.27617533 1.94074861 -0.27617533 1.94074861 0 0 Z " fill="#DAC061" transform="translate(173,254)"/>
<path d="M0 0 C5.94 0 11.88 0 18 0 C18.33 11.88 18.66 23.76 19 36 C21.31 32.37 23.62 28.74 26 25 C26.99 25 27.98 25 29 25 C28.25 27.9375 28.25 27.9375 27 31 C24.875 31.875 24.875 31.875 23 32 C23 33.98 23 35.96 23 38 C21.02 38 19.04 38 17 38 C17 25.79 17 13.58 17 1 C11.39 1 5.78 1 0 1 C0 0.67 0 0.34 0 0 Z " fill="#E2D375" transform="translate(136,218)"/>
<path d="M0 0 C5.21443333 -0.02470935 10.42883261 -0.04286444 15.64331055 -0.05493164 C17.41740513 -0.059962 19.19149556 -0.06678699 20.96557617 -0.07543945 C23.51482161 -0.08756174 26.06401226 -0.09324126 28.61328125 -0.09765625 C29.80405022 -0.10539818 29.80405022 -0.10539818 31.01887512 -0.11329651 C34.27656286 -0.11362877 36.88681521 -0.03772826 40 1 C40.05416188 2.60379341 40.09286638 4.20811406 40.125 5.8125 C40.14820313 6.70582031 40.17140625 7.59914062 40.1953125 8.51953125 C40 11 40 11 38 14 C35.1796875 14.29296875 35.1796875 14.29296875 31.875 14.1875 C30.23144531 14.14689453 30.23144531 14.14689453 28.5546875 14.10546875 C27.71164063 14.07066406 26.86859375 14.03585938 26 14 C26 13.67 26 13.34 26 13 C29.63 12.67 33.26 12.34 37 12 C37 8.7 37 5.4 37 2 C18.685 1.505 18.685 1.505 0 1 C0 0.67 0 0.34 0 0 Z " fill="#75894D" transform="translate(64,213)"/>
<path d="M0 0 C2.64 0 5.28 0 8 0 C8 3.3 8 6.6 8 10 C5.36 10 2.72 10 0 10 C0 6.7 0 3.4 0 0 Z " fill="#D7A83A" transform="translate(93,215)"/>
<path d="M0 0 C3.96 0 7.92 0 12 0 C12 19.14 12 38.28 12 58 C11.67 58 11.34 58 11 58 C11 39.52 11 21.04 11 2 C9.68 2.33 8.36 2.66 7 3 C4.645752 2.411438 2.30657014 1.75407101 0 1 C0 0.67 0 0.34 0 0 Z " fill="#F0CF68" transform="translate(110,235)"/>
<path d="M0 0 C0.66 0.33 1.32 0.66 2 1 C0.54726368 7.41625207 0.54726368 7.41625207 -1.875 10 C-4 11 -4 11 -6.25 10.6875 C-6.8275 10.460625 -7.405 10.23375 -8 10 C-8.33 7.69 -8.66 5.38 -9 3 C-7.88625 2.87625 -6.7725 2.7525 -5.625 2.625 C-1.96896323 2.3534187 -1.96896323 2.3534187 0 0 Z " fill="#D7D186" transform="translate(208,218)"/>
<path d="M0 0 C1.60031344 3.20062687 0.03173691 5.72271806 -1 9 C-1.99 9 -2.98 9 -4 9 C-4.144375 9.763125 -4.28875 10.52625 -4.4375 11.3125 C-5 14 -5 14 -6 17 C-6.66 17 -7.32 17 -8 17 C-8.66 18.98 -9.32 20.96 -10 23 C-10.66 23 -11.32 23 -12 23 C-10.47342723 17.9511786 -8.35878819 13.38371054 -6 8.6875 C-5.64421875 7.95982422 -5.2884375 7.23214844 -4.921875 6.48242188 C-2.24421584 1.12210792 -2.24421584 1.12210792 0 0 Z " fill="#C2BD6B" transform="translate(175,220)"/>
<path d="M0 0 C0.33 0 0.66 0 1 0 C1.34842354 3.65844715 1.13132751 5.73187299 -0.5 9.0625 C-3.5221007 12.61346832 -6.76708312 15.03564843 -11 17 C-11.99 17 -12.98 17 -14 17 C-13.34 15.68 -12.68 14.36 -12 13 C-10.35 13 -8.7 13 -7 13 C-7 12.34 -7 11.68 -7 11 C-6.34 10.67 -5.68 10.34 -5 10 C-3.91143216 8.18773343 -3.91143216 8.18773343 -2.9375 6.0625 C-2.59589844 5.35222656 -2.25429688 4.64195312 -1.90234375 3.91015625 C-1.45568359 2.96462891 -1.45568359 2.96462891 -1 2 C-0.67 1.34 -0.34 0.68 0 0 Z " fill="#83CECE" transform="translate(381,277)"/>
<path d="M0 0 C3.26786041 2.20580578 3.8619141 3.40162776 4.75 7.25 C4.87375 8.61125 4.87375 8.61125 5 10 C4.7525 9.360625 4.505 8.72125 4.25 8.0625 C3.18437567 5.81258459 3.18437567 5.81258459 0.875 5.25 C0.25625 5.1675 -0.3625 5.085 -1 5 C-1 4.01 -1 3.02 -1 2 C-2.051875 2.185625 -3.10375 2.37125 -4.1875 2.5625 C-7.57119882 2.95079331 -9.76425888 2.88247485 -13 2 C-10.65652584 -2.68694833 -4.28247051 -0.99124091 0 0 Z " fill="#CCBA60" transform="translate(120,209)"/>
<path d="M0 0 C0.99 0.33 1.98 0.66 3 1 C2.67 1.99 2.34 2.98 2 4 C-4.27 4 -10.54 4 -17 4 C-17 3.34 -17 2.68 -17 2 C-11.39 2 -5.78 2 0 2 C0 1.34 0 0.68 0 0 Z " fill="#8ADEDD" transform="translate(408,290)"/>
<path d="M0 0 C0.99 0 1.98 0 3 0 C2.25 2.9375 2.25 2.9375 1 6 C-1.125 6.875 -1.125 6.875 -3 7 C-3 8.98 -3 10.96 -3 13 C-4.98 13 -6.96 13 -9 13 C-8 11 -8 11 -6.1875 8.75 C-3.90469173 5.98819218 -3.90469173 5.98819218 -1.9375 2.6875 C-1.298125 1.800625 -0.65875 0.91375 0 0 Z " fill="#DECD6B" transform="translate(162,243)"/>
<path d="M0 0 C0.33 0.99 0.66 1.98 1 3 C-3.58154261 5.39542583 -8.0276578 7.50829734 -13 9 C-13 10.98 -13 12.96 -13 15 C-15.62386487 11.93882432 -16 11.26826873 -16 7 C-13.36 6.67 -10.72 6.34 -8 6 C-8 5.34 -8 4.68 -8 4 C-5.36 2.68 -2.72 1.36 0 0 Z " fill="#93D1B4" transform="translate(213,212)"/>
<path d="M0 0 C5.43396226 0.60377358 5.43396226 0.60377358 7.875 2.3125 C9 4 9 4 9 8 C7.35 7.67 5.7 7.34 4 7 C4 6.01 4 5.02 4 4 C2.68 3.34 1.36 2.68 0 2 C0 1.34 0 0.68 0 0 Z " fill="#94B791" transform="translate(181,209)"/>
<path d="M0 0 C0.66 0 1.32 0 2 0 C1.70636093 3.42578919 1.0063241 4.99181587 -1.125 7.75 C-4.58593497 10.4585578 -6.63424464 10.92204008 -11 11 C-13.9375 10.0625 -13.9375 10.0625 -16 9 C-12.18243176 7.62567543 -8.92744671 8.32024961 -5 9 C-5 8.34 -5 7.68 -5 7 C-4.01 7 -3.02 7 -2 7 C-2 5.35 -2 3.7 -2 2 C-1.34 2 -0.68 2 0 2 C0 1.34 0 0.68 0 0 Z " fill="#97A762" transform="translate(123,220)"/>
<path d="M0 0 C1.98 0.495 1.98 0.495 4 1 C4 3.66666667 4 6.33333333 4 9 C2.35 9 0.7 9 -1 9 C-1.125 2.25 -1.125 2.25 0 0 Z " fill="#D0A746" transform="translate(94,216)"/>
<path d="M0 0 C6.625 -0.25 6.625 -0.25 10 2 C9.67 3.32 9.34 4.64 9 6 C9 5.34 9 4.68 9 4 C5.49064814 4 2.43515002 4.37542727 -1 5 C-0.67 3.35 -0.34 1.7 0 0 Z " fill="#6FC6C3" transform="translate(207,210)"/>
<path d="M0 0 C5.99295775 5.83098592 5.99295775 5.83098592 8 9 C8 9.99 8 10.98 8 12 C5.69 12 3.38 12 1 12 C1.99 11.34 2.98 10.68 4 10 C3.34 8.02 2.68 6.04 2 4 C1.34 4 0.68 4 0 4 C0 2.68 0 1.36 0 0 Z " fill="#B1BA65" transform="translate(185,282)"/>
<path d="M0 0 C1.65 0.33 3.3 0.66 5 1 C4.21572648 2.64936913 3.42234741 4.29441127 2.625 5.9375 C2.18414062 6.85402344 1.74328125 7.77054688 1.2890625 8.71484375 C0 11 0 11 -2 12 C-1.44687265 7.97007218 -0.8441938 3.97977076 0 0 Z " fill="#6FB4B4" transform="translate(437,236)"/>
<path d="M0 0 C0.33 0.99 0.66 1.98 1 3 C-3.30769231 6.93846154 -3.30769231 6.93846154 -6.8125 7.25 C-7.534375 7.1675 -8.25625 7.085 -9 7 C-3.34042553 0 -3.34042553 0 0 0 Z " fill="#BDD08D" transform="translate(219,223)"/>
<path d="M0 0 C0 1.32 0 2.64 0 4 C-3.3 4 -6.6 4 -10 4 C-9.34 3.67 -8.68 3.34 -8 3 C-8 2.34 -8 1.68 -8 1 C-5.07175348 0.02391783 -3.04386724 -0.08226668 0 0 Z " fill="#BA9443" transform="translate(216,232)"/>
<path d="M0 0 C0.66 1.32 1.32 2.64 2 4 C2.66 4 3.32 4 4 4 C4.66 6.31 5.32 8.62 6 11 C4.33333333 11 2.66666667 11 1 11 C0.67 7.37 0.34 3.74 0 0 Z " fill="#77C5B9" transform="translate(321,261)"/>
<path d="M0 0 C0.70125 0.00515625 1.4025 0.0103125 2.125 0.015625 C2.82625 0.01046875 3.5275 0.0053125 4.25 0 C6.125 0.265625 6.125 0.265625 8.125 2.265625 C6.50328761 2.65459661 4.87745075 3.02640798 3.25 3.390625 C2.34507812 3.59945312 1.44015625 3.80828125 0.5078125 4.0234375 C-0.27851563 4.10335937 -1.06484375 4.18328125 -1.875 4.265625 C-2.535 3.605625 -3.195 2.945625 -3.875 2.265625 C-1.875 0.265625 -1.875 0.265625 0 0 Z " fill="#5AB1BC" transform="translate(204.875,207.734375)"/>
<path d="M0 0 C0.66 0 1.32 0 2 0 C2.66 2.31 3.32 4.62 4 7 C3.01 7.495 3.01 7.495 2 8 C2 7.34 2 6.68 2 6 C1.01 6 0.02 6 -1 6 C-1.33 6.99 -1.66 7.98 -2 9 C-2.66 8.67 -3.32 8.34 -4 8 C-3.2884375 7.13375 -3.2884375 7.13375 -2.5625 6.25 C-1.0515133 4.07417916 -0.45963849 2.57397552 0 0 Z " fill="#53B0AE" transform="translate(219,215)"/>
<path d="M0 0 C6.6 0 13.2 0 20 0 C20.33 0.99 20.66 1.98 21 3 C20.34 3.66 19.68 4.32 19 5 C18.67 3.68 18.34 2.36 18 1 C12.06 1 6.12 1 0 1 C0 0.67 0 0.34 0 0 Z " fill="#3F9493" transform="translate(431,217)"/>
<path d="M0 0 C1.32 0.33 2.64 0.66 4 1 C2.73461631 1.84158536 1.46246221 2.67299748 0.1875 3.5 C-0.87404297 4.19609375 -0.87404297 4.19609375 -1.95703125 4.90625 C-4 6 -4 6 -7 6 C-6.34 4.68 -5.68 3.36 -5 2 C-3.35 2 -1.7 2 0 2 C0 1.34 0 0.68 0 0 Z " fill="#7AC5C7" transform="translate(374,288)"/>
<path d="M0 0 C0.66 1.32 1.32 2.64 2 4 C1.01 5.485 1.01 5.485 0 7 C-0.99 7 -1.98 7 -3 7 C-2.34 8.98 -1.68 10.96 -1 13 C-1.99 13.33 -2.98 13.66 -4 14 C-5.1092904 10.67212881 -5.01557588 9.3006216 -4 6 C-3.01 5.34 -2.02 4.68 -1 4 C-0.27617533 1.94074861 -0.27617533 1.94074861 0 0 Z " fill="#E2C967" transform="translate(173,254)"/>
<path d="M0 0 C0.33 0.66 0.66 1.32 1 2 C1.66 2.33 2.32 2.66 3 3 C4.125 5.0625 4.125 5.0625 5 7 C3.51800098 6.55090939 2.03944764 6.09043436 0.5625 5.625 C-0.26121094 5.36976563 -1.08492188 5.11453125 -1.93359375 4.8515625 C-4 4 -4 4 -5 2 C-3.68 2.33 -2.36 2.66 -1 3 C-0.67 2.01 -0.34 1.02 0 0 Z " fill="#72C7C4" transform="translate(350,258)"/>
<path d="M0 0 C3.63 0 7.26 0 11 0 C6.5 3.375 6.5 3.375 2.25 3.6875 C1.45078125 3.75324219 0.6515625 3.81898438 -0.171875 3.88671875 C-0.77515625 3.92410156 -1.3784375 3.96148437 -2 4 C-1.34 2.68 -0.68 1.36 0 0 Z " fill="#FBE436" transform="translate(107,234)"/>
<path d="M0 0 C1.98 0.66 3.96 1.32 6 2 C6.33 1.34 6.66 0.68 7 0 C7.33 1.98 7.66 3.96 8 6 C2.33846154 4.52307692 2.33846154 4.52307692 0.625 1.875 C0.41875 1.25625 0.2125 0.6375 0 0 Z " fill="#D6BF61" transform="translate(156,273)"/>
<path d="M0 0 C2.39256506 1.19628253 2.79843378 2.12565265 4.0625 4.4375 C4.40410156 5.05496094 4.74570313 5.67242187 5.09765625 6.30859375 C5.74921553 7.52991482 6.38094352 8.76188703 7 10 C6.34 10 5.68 10 5 10 C4.67 10.99 4.34 11.98 4 13 C0.71428571 4.57142857 0.71428571 4.57142857 0 0 Z " fill="#C1BA6A" transform="translate(170,261)"/>
<path d="M0 0 C-0.49831724 3.68754757 -1.10067643 5.60490662 -4 8 C-4 6.35 -4 4.7 -4 3 C-4.99 2.67 -5.98 2.34 -7 2 C-2.25 0 -2.25 0 0 0 Z " fill="#A8CA99" transform="translate(216,214)"/>
<path d="M0 0 C3.80881639 1.44472346 5.29742886 3.32603071 7 7 C6.67 7.99 6.34 8.98 6 10 C5.67 8.68 5.34 7.36 5 6 C3.68 5.67 2.36 5.34 1 5 C0.67 3.35 0.34 1.7 0 0 Z " fill="#A2A55A" transform="translate(118,209)"/>
<path d="M0 0 C0.5625 1.9375 0.5625 1.9375 1 4 C0.67 4.33 0.34 4.66 0 5 C-0.04080783 6.99958364 -0.04254356 9.00045254 0 11 C-1.65 11.33 -3.3 11.66 -5 12 C-3.68938409 7.76570244 -2.05643741 3.92592596 0 0 Z " fill="#66AFAC" transform="translate(424,228)"/>
<path d="M0 0 C4.75 0.875 4.75 0.875 7 2 C7 2.66 7 3.32 7 4 C8.65 4 10.3 4 12 4 C12 4.33 12 4.66 12 5 C7.12335991 5.34833144 4.22949995 4.41685712 0 2 C0 1.34 0 0.68 0 0 Z " fill="#85CECC" transform="translate(343,290)"/>
<path d="M0 0 C1.32 1.65 2.64 3.3 4 5 C3.67 5.66 3.34 6.32 3 7 C0.03 6.505 0.03 6.505 -3 6 C-2.01 4.02 -1.02 2.04 0 0 Z " fill="#94DDDB" transform="translate(331,287)"/>
<path d="M0 0 C-2.25 2.0625 -2.25 2.0625 -5 4 C-7.3125 3.75 -7.3125 3.75 -9 3 C-7.01532024 -0.96935951 -3.9567243 -1.41311582 0 0 Z " fill="#A5C287" transform="translate(209,225)"/>
<path d="M0 0 C1.32 0 2.64 0 4 0 C4 0.99 4 1.98 4 3 C4.66 3 5.32 3 6 3 C6.33 3.99 6.66 4.98 7 6 C4 6 4 6 1.8125 4.125 C0 2 0 2 0 0 Z " fill="#76C4C3" transform="translate(336,284)"/>
<path d="M0 0 C0.33 0 0.66 0 1 0 C1.125 6.625 1.125 6.625 0 10 C-0.99 9.67 -1.98 9.34 -3 9 C-3.125 6.625 -3.125 6.625 -3 4 C-2.34 3.34 -1.68 2.68 -1 2 C-0.67 1.34 -0.34 0.68 0 0 Z " fill="#92DFD7" transform="translate(293,249)"/>
<path d="M0 0 C3.96 0 7.92 0 12 0 C11.67 1.32 11.34 2.64 11 4 C11 3.34 11 2.68 11 2 C10.484375 2.20625 9.96875 2.4125 9.4375 2.625 C5.96734329 3.15887026 3.29364209 2.07676761 0 1 C0 0.67 0 0.34 0 0 Z " fill="#ECCD5B" transform="translate(110,235)"/>
<path d="M0 0 C2 1 2 1 3 3 C2.01 3 1.02 3 0 3 C0 3.66 0 4.32 0 5 C-2.64 5 -5.28 5 -8 5 C-8 4.67 -8 4.34 -8 4 C-6.35 4 -4.7 4 -3 4 C-3 3.34 -3 2.68 -3 2 C-2.01 1.34 -1.02 0.68 0 0 Z " fill="#B4A95C" transform="translate(208,230)"/>
<path d="M0 0 C1.32 0.33 2.64 0.66 4 1 C4 1.99 4 2.98 4 4 C5.65 4.33 7.3 4.66 9 5 C7 6 7 6 3.9375 5.3125 C1 4 1 4 0.125 1.875 C0.08375 1.25625 0.0425 0.6375 0 0 Z " fill="#CEC261" transform="translate(104,223)"/>
<path d="M0 0 C0.99 0.99 1.98 1.98 3 3 C3.66 2.67 4.32 2.34 5 2 C5.33 2.99 5.66 3.98 6 5 C4 6 2 7 0 8 C-0.79953138 4.71303767 -1.09658936 3.28976808 0 0 Z " fill="#5FB5B4" transform="translate(409,247)"/>
<path d="M0 0 C2.66735273 2.48952921 4.55746343 4.63408134 6 8 C4.68 7.67 3.36 7.34 2 7 C1.34 4.69 0.68 2.38 0 0 Z " fill="#6FC7C4" transform="translate(436,276)"/>
<path d="M0 0 C2 2 2 2 2 5 C1.01 5 0.02 5 -1 5 C-1.33 6.65 -1.66 8.3 -2 10 C-3.39195915 5.82412255 -1.82323219 3.86525224 0 0 Z " fill="#70D0CE" transform="translate(281,235)"/>
<path d="M0 0 C0.5625 1.9375 0.5625 1.9375 1 4 C0 5 0 5 -2.5625 5.0625 C-3.7690625 5.0315625 -3.7690625 5.0315625 -5 5 C-4.67 4.01 -4.34 3.02 -4 2 C-2.68 2 -1.36 2 0 2 C0 1.34 0 0.68 0 0 Z " fill="#92DDDD" transform="translate(379,233)"/>
<path d="M0 0 C2.475 0.495 2.475 0.495 5 1 C5 2.32 5 3.64 5 5 C3.68 4.67 2.36 4.34 1 4 C0.67 2.68 0.34 1.36 0 0 Z " fill="#78C5BE" transform="translate(218,221)"/>
<path d="M0 0 C0.91007813 0.10183594 1.82015625 0.20367187 2.7578125 0.30859375 C3.45648438 0.39238281 4.15515625 0.47617187 4.875 0.5625 C4.875 0.8925 4.875 1.2225 4.875 1.5625 C1.245 1.8925 -2.385 2.2225 -6.125 2.5625 C-6.455 1.9025 -6.785 1.2425 -7.125 0.5625 C-4.50184968 -0.74907516 -2.89466564 -0.33399988 0 0 Z " fill="#89D8D5" transform="translate(241.125,291.4375)"/>
<path d="M0 0 C1.23556641 0.01740234 1.23556641 0.01740234 2.49609375 0.03515625 C3.32238281 0.04417969 4.14867187 0.05320312 5 0.0625 C5.63808594 0.07410156 6.27617187 0.08570313 6.93359375 0.09765625 C6.60359375 0.75765625 6.27359375 1.41765625 5.93359375 2.09765625 C2.49609375 2.84765625 2.49609375 2.84765625 -1.06640625 3.09765625 C-1.72640625 2.43765625 -2.38640625 1.77765625 -3.06640625 1.09765625 C-2.06640625 0.09765625 -2.06640625 0.09765625 0 0 Z " fill="#97DFDA" transform="translate(343.06640625,271.90234375)"/>
<path d="M0 0 C1.2065625 0.0309375 1.2065625 0.0309375 2.4375 0.0625 C1.4475 0.3925 0.4575 0.7225 -0.5625 1.0625 C-1.78770264 4.07097418 -1.78770264 4.07097418 -2.5625 7.0625 C-2.8925 7.0625 -3.2225 7.0625 -3.5625 7.0625 C-3.60504356 5.06295254 -3.60330783 3.06208364 -3.5625 1.0625 C-2.5625 0.0625 -2.5625 0.0625 0 0 Z " fill="#70C15F" transform="translate(197.5625,217.9375)"/>
</svg>
